# xmcd
#
# Track frame offsets: 
#        150
#        15140
#        33002
#        49222
#        66842
#        86677
#        98982
#        108602
#        121317
#        140592
#        154395
#        169422
#
# Disc length: 2505 seconds
#
# Revision: 1
# Processed by: cddbd v1.5.1PL2 Copyright (c) Steve Scherf et al.
# Submitted via: ExactAudioCopy v0.95b3
#
DISCID=9e09c70c
DTITLE=Marianne Faithfull - Faithless
DYEAR=1988
DGENRE=Folk
TTITLE0=Dreamin' My Dreams
TTITLE1=Vanilla O'Lay
TTITLE2=Wait For Me Down By The River
TTITLE3=I'll Be Your Baby Tonight
TTITLE4=Lady Madelaine
TTITLE5=All I Want To Do In Life
TTITLE6=The Way You Want Me To Be
TTITLE7=Wrong Road Again
TTITLE8=That Was The Day (Nashville)
TTITLE9=This Time
TTITLE10=I'm Not Lisa
TTITLE11=Honky Tonk Angels
EXTD=
EXTT0=
EXTT1=
EXTT2=
EXTT3=
EXTT4=
EXTT5=
EXTT6=
EXTT7=
EXTT8=
EXTT9=
EXTT10=
EXTT11=
PLAYORDER=
